# xmcd
#
# Track frame offsets: 
#        225
#        18692
#        30170
#        47215
#        67441
#        80170
#        97291
#        110313
#        126832
#        141137
#        163261
#        177253
#        189470
#        209456
#        226309
#        240636
#        251910
#        271893
#        283252
#        295278
#
# Disc length: 4190 seconds
#
# Revision: 1
# Processed by: cddbd v1.5.2PL0 Copyright (c) Steve Scherf et al.
# Submitted via: ExactAudioCopy v0.99pb5
#
DISCID=3e105b14
DTITLE=Various Artist - TAM, KDE LEZÍ PHOENIX
DYEAR=2000
DGENRE=Country
TTITLE0=ROBERT KRES´TAN - Tancím (Let´s Dance)
TTITLE1=PAVEL BOBEK - Tam, Kde Lezí Phoenix (By The Time I Get To Phoe
TTITLE1=nix)
TTITLE2=PETR KOCMAN, JINDRA VOBORIL, MICHAL CERMAN - Svet Se Porád Men
TTITLE2=í (Baby Likes To Rock It)
TTITLE3=IVAN HLAS - Jahodový Reggae
TTITLE4=KAREL CERNOCH - Dej Si S Námi Tón (The Boys Are Back In Town)
TTITLE5=KAREL ZICH A ALLAN MIKUSEK - Black And White (Born And Raised 
TTITLE5=In Black And White)
TTITLE6=SCHOVANKY - Síla Má Je V Síle Volantu
TTITLE7=MIREK CERNÝ - Charlie and Fantom 305
TTITLE8=MIREK HOFFMANN A ZELENÁCi - U Silnice E-55 (Down The Road I Go
TTITLE8=)
TTITLE9=MICHAL TUCNÝ - Kosmickej Vandr
TTITLE10=WABI DANEK - Na Ceste
TTITLE11=JINDRA MALÍK - Dallas V Tennessee (Dallas)
TTITLE12=VLADIMÍR TESARÍK, JANA TRCKOVÁ - Dlouhá Reka (The River Knows
TTITLE12=Your Name)
TTITLE13=HONZA VYCÍTAL - Cadillac (One Piece At A Time)
TTITLE14=GREENHORNS and PETR KOCMAN - Asfaltový Blues (Highway 40 Blues)
TTITLE15=STANIA - Diggy Liggy (Diggy Liggy Lou)
TTITLE16=LADISLAV VODICKA - Teddy Bear
TTITLE17=TRÁT´A VYSKOCIL A TAXMENI - Pán Dálnice (Highway Patrol)
TTITLE18=TOMÁS LINKA A PETR KOCMAN - Nesmím Jí Usnout V Nárucí (The Wh
TTITLE18=iskey Ain´t Workin´) (1990)
TTITLE19=KAREL CERNOCH, VLADIMÍR TESARÍK, JINDRA MALÍK, VOCODE, SCHOVA
TTITLE19=NKY, NEZMARI - Uz Z Hor Zní Zvon (Amazing Grace)
EXTD=YEAR: 2000
EXTT0=
EXTT1=
EXTT2=
EXTT3=
EXTT4=
EXTT5=
EXTT6=
EXTT7=
EXTT8=
EXTT9=
EXTT10=
EXTT11=
EXTT12=
EXTT13=
EXTT14=
EXTT15=
EXTT16=
EXTT17=
EXTT18=
EXTT19=
PLAYORDER=
